<mxfile host="65bd71144e">
    <diagram id="wz-hXvcGyVTrwp2TZiIl" name="desc">
        <mxGraphModel dx="2011" dy="832" grid="1" gridSize="10" guides="1" tooltips="1" connect="1" arrows="1" fold="1" page="1" pageScale="1" pageWidth="827" pageHeight="1169" math="0" shadow="0">
            <root>
                <mxCell id="0"/>
                <mxCell id="1" parent="0"/>
                <mxCell id="2" value="" style="rounded=0;whiteSpace=wrap;html=1;dashed=1;" parent="1" vertex="1">
                    <mxGeometry x="-10" y="25" width="950" height="255" as="geometry"/>
                </mxCell>
                <mxCell id="16" value="" style="group;fillColor=#ffff88;strokeColor=#36393d;container=0;" parent="1" vertex="1" connectable="0">
                    <mxGeometry x="25" y="40" width="120" height="100" as="geometry"/>
                </mxCell>
                <mxCell id="17" value="" style="group;fillColor=#b1ddf0;strokeColor=#10739e;container=0;" parent="1" vertex="1" connectable="0">
                    <mxGeometry x="260" y="100" width="120" height="100" as="geometry"/>
                </mxCell>
                <mxCell id="21" value="" style="group;fillColor=#b1ddf0;strokeColor=#10739e;container=0;" parent="1" vertex="1" connectable="0">
                    <mxGeometry x="488" y="140" width="120" height="100" as="geometry"/>
                </mxCell>
                <mxCell id="27" value="Not Found Handler" style="rounded=0;whiteSpace=wrap;html=1;fontSize=20;fillColor=#b0e3e6;strokeColor=#0e8088;" parent="1" vertex="1">
                    <mxGeometry x="713" y="220" width="210" height="40" as="geometry"/>
                </mxCell>
                <mxCell id="28" style="edgeStyle=orthogonalEdgeStyle;html=1;entryX=0;entryY=0.5;entryDx=0;entryDy=0;fontSize=20;" parent="1" source="5" target="18" edge="1">
                    <mxGeometry relative="1" as="geometry"/>
                </mxCell>
                <mxCell id="31" value="delegate" style="edgeLabel;html=1;align=center;verticalAlign=middle;resizable=0;points=[];fontSize=20;" parent="28" vertex="1" connectable="0">
                    <mxGeometry x="-0.3524" y="-4" relative="1" as="geometry">
                        <mxPoint x="-2" y="21" as="offset"/>
                    </mxGeometry>
                </mxCell>
                <mxCell id="29" style="edgeStyle=orthogonalEdgeStyle;html=1;entryX=0.011;entryY=0.587;entryDx=0;entryDy=0;entryPerimeter=0;fontSize=20;" parent="1" source="18" target="22" edge="1">
                    <mxGeometry relative="1" as="geometry"/>
                </mxCell>
                <mxCell id="30" style="edgeStyle=orthogonalEdgeStyle;html=1;entryX=0;entryY=0.5;entryDx=0;entryDy=0;fontSize=20;" parent="1" source="22" target="27" edge="1">
                    <mxGeometry relative="1" as="geometry"/>
                </mxCell>
                <mxCell id="32" value="delegate" style="edgeLabel;html=1;align=center;verticalAlign=middle;resizable=0;points=[];fontSize=20;" parent="1" vertex="1" connectable="0">
                    <mxGeometry x="428" y="170" as="geometry"/>
                </mxCell>
                <mxCell id="33" value="delegate" style="edgeLabel;html=1;align=center;verticalAlign=middle;resizable=0;points=[];fontSize=20;" parent="1" vertex="1" connectable="0">
                    <mxGeometry x="660" y="210" as="geometry"/>
                </mxCell>
                <mxCell id="46" value="" style="group;fillColor=#ffcccc;strokeColor=#36393d;container=0;" parent="1" vertex="1" connectable="0">
                    <mxGeometry x="-184" y="299" width="260" height="130" as="geometry"/>
                </mxCell>
                <mxCell id="34" value="" style="rounded=0;whiteSpace=wrap;html=1;fontSize=20;dashed=1;" parent="1" vertex="1">
                    <mxGeometry x="-184" y="299" width="260" height="130" as="geometry"/>
                </mxCell>
                <mxCell id="36" value="" style="group;fillColor=#b1ddf0;strokeColor=#10739e;container=0;" parent="1" vertex="1" connectable="0">
                    <mxGeometry x="-64" y="314" width="120" height="100" as="geometry"/>
                </mxCell>
                <mxCell id="37" value="" style="rounded=0;whiteSpace=wrap;html=1;fillColor=#1ba1e2;fontColor=#ffffff;strokeColor=#006EAF;" parent="1" vertex="1">
                    <mxGeometry x="-64" y="315" width="120" height="100" as="geometry"/>
                </mxCell>
                <mxCell id="49" value="" style="rounded=0;whiteSpace=wrap;html=1;fontSize=20;dashed=1;" parent="1" vertex="1">
                    <mxGeometry x="106" y="299" width="260" height="130" as="geometry"/>
                </mxCell>
                <mxCell id="54" style="edgeStyle=orthogonalEdgeStyle;html=1;entryX=0.5;entryY=0;entryDx=0;entryDy=0;fontSize=20;" parent="1" source="5" target="38" edge="1">
                    <mxGeometry relative="1" as="geometry"/>
                </mxCell>
                <mxCell id="55" style="edgeStyle=orthogonalEdgeStyle;html=1;fontSize=20;" parent="1" source="5" target="52" edge="1">
                    <mxGeometry relative="1" as="geometry"/>
                </mxCell>
                <mxCell id="60" value="&lt;font style=&quot;font-size: 20px ; font-weight: normal&quot;&gt;Proxy&lt;/font&gt;" style="edgeLabel;html=1;align=center;verticalAlign=middle;resizable=0;points=[];fontStyle=1" vertex="1" connectable="0" parent="55">
                    <mxGeometry x="-0.871" y="2" relative="1" as="geometry">
                        <mxPoint x="-2" y="27" as="offset"/>
                    </mxGeometry>
                </mxCell>
                <mxCell id="5" value="" style="rounded=0;whiteSpace=wrap;html=1;fillColor=#1ba1e2;fontColor=#ffffff;strokeColor=#006EAF;" parent="1" vertex="1">
                    <mxGeometry x="25" y="40" width="120" height="100" as="geometry"/>
                </mxCell>
                <mxCell id="14" value="Aggregation" style="rounded=0;whiteSpace=wrap;html=1;fillColor=#e3c800;fontColor=#000000;strokeColor=#B09500;" parent="1" vertex="1">
                    <mxGeometry x="25" y="40" width="120" height="30" as="geometry"/>
                </mxCell>
                <mxCell id="15" value="G" style="text;html=1;strokeColor=none;fillColor=none;align=center;verticalAlign=middle;whiteSpace=wrap;rounded=0;fontSize=20;" parent="1" vertex="1">
                    <mxGeometry x="55" y="85" width="60" height="30" as="geometry"/>
                </mxCell>
                <mxCell id="18" value="" style="rounded=0;whiteSpace=wrap;html=1;fillColor=#1ba1e2;fontColor=#ffffff;strokeColor=#006EAF;" parent="1" vertex="1">
                    <mxGeometry x="260" y="100" width="120" height="100" as="geometry"/>
                </mxCell>
                <mxCell id="19" value="Master" style="rounded=0;whiteSpace=wrap;html=1;fillColor=#b1ddf0;strokeColor=#10739e;" parent="1" vertex="1">
                    <mxGeometry x="260" y="100" width="120" height="30" as="geometry"/>
                </mxCell>
                <mxCell id="20" value="G" style="text;html=1;strokeColor=none;fillColor=none;align=center;verticalAlign=middle;whiteSpace=wrap;rounded=0;fontSize=20;" parent="1" vertex="1">
                    <mxGeometry x="290" y="145" width="60" height="30" as="geometry"/>
                </mxCell>
                <mxCell id="22" value="" style="rounded=0;whiteSpace=wrap;html=1;fillColor=#1ba1e2;fontColor=#ffffff;strokeColor=#006EAF;" parent="1" vertex="1">
                    <mxGeometry x="488" y="140" width="120" height="100" as="geometry"/>
                </mxCell>
                <mxCell id="23" value="Extension Server" style="rounded=0;whiteSpace=wrap;html=1;fillColor=#b1ddf0;strokeColor=#10739e;" parent="1" vertex="1">
                    <mxGeometry x="488" y="140" width="120" height="30" as="geometry"/>
                </mxCell>
                <mxCell id="24" value="G" style="text;html=1;strokeColor=none;fillColor=none;align=center;verticalAlign=middle;whiteSpace=wrap;rounded=0;fontSize=20;" parent="1" vertex="1">
                    <mxGeometry x="518" y="185" width="60" height="30" as="geometry"/>
                </mxCell>
                <mxCell id="56" value="" style="group" parent="1" vertex="1" connectable="0">
                    <mxGeometry x="125" y="314" width="120" height="100" as="geometry"/>
                </mxCell>
                <mxCell id="51" value="" style="rounded=0;whiteSpace=wrap;html=1;fillColor=#1ba1e2;fontColor=#ffffff;strokeColor=#006EAF;" parent="56" vertex="1">
                    <mxGeometry width="120" height="100" as="geometry"/>
                </mxCell>
                <mxCell id="52" value="Custom" style="rounded=0;whiteSpace=wrap;html=1;fillColor=#b1ddf0;strokeColor=#10739e;" parent="56" vertex="1">
                    <mxGeometry width="120" height="30" as="geometry"/>
                </mxCell>
                <mxCell id="53" value="G" style="text;html=1;strokeColor=none;fillColor=none;align=center;verticalAlign=middle;whiteSpace=wrap;rounded=0;fontSize=20;" parent="56" vertex="1">
                    <mxGeometry x="30" y="45" width="60" height="30" as="geometry"/>
                </mxCell>
                <mxCell id="57" value="" style="group" parent="1" vertex="1" connectable="0">
                    <mxGeometry x="-64" y="314" width="120" height="75" as="geometry"/>
                </mxCell>
                <mxCell id="38" value="Custom" style="rounded=0;whiteSpace=wrap;html=1;fillColor=#b1ddf0;strokeColor=#10739e;" parent="57" vertex="1">
                    <mxGeometry y="1" width="120" height="30" as="geometry"/>
                </mxCell>
                <mxCell id="39" value="G" style="text;html=1;strokeColor=none;fillColor=none;align=center;verticalAlign=middle;whiteSpace=wrap;rounded=0;fontSize=20;" parent="57" vertex="1">
                    <mxGeometry x="30" y="45" width="60" height="30" as="geometry"/>
                </mxCell>
                <mxCell id="59" value="控制面Server 上的一个 Web Application" style="text;html=1;strokeColor=none;fillColor=none;align=center;verticalAlign=middle;whiteSpace=wrap;rounded=0;dashed=1;fontSize=16;fontColor=#808080;" parent="1" vertex="1">
                    <mxGeometry x="600" y="25" width="377" height="30" as="geometry"/>
                </mxCell>
            </root>
        </mxGraphModel>
    </diagram>
</mxfile>